<?xml version="1.0" encoding="utf-8"?>
<svg version="1.1" id="Ebene_1" xmlns="http://www.w3.org/2000/svg" xmlns:xlink="http://www.w3.org/1999/xlink" x="0px" y="0px"
   viewBox="0 0 101 169" enable-background="new 0 0 101 169" xml:space="preserve">
<polygon fill="#c9c9c9" points="38,118.4 96,146.5 96,112.4 61.3,95.6 "/>
<polygon fill="#c9c9c9" points="100,114.4 100,154.5 101,154.5 101,114.9 "/>
<g>
  <polygon fill="#FF3B00" points="5,100.1 38,67.4 38,30.2 5,11.7 5,150.5 5,150.5  "/>
  <polygon fill="#FF3B00" points="5.1,150.5 38,169 38,118.4   "/>
</g>
<polygon fill="#0F0F0F" points="96,9.8 5,100.1 5,150.6 96,61.8 "/>
<polygon fill="#212121" points="96,0 5,92.1 5,93.4 96,1.3 "/>
<polygon points="0,5.7 0,147.6 1,148.1 1,6.2 "/>
</svg>
